<svg version="1.1" id="Layer_1" xmlns="http://www.w3.org/2000/svg" xmlns:xlink="http://www.w3.org/1999/xlink" x="0px" y="0px"
	 width="100%" viewBox="0 0 496 496" enable-background="new 0 0 496 496" xml:space="preserve">
<path fill="#000000" opacity="1.000000" stroke="none" 
	d="
M133.576050,173.553070 
	C140.093735,167.113464 146.398117,171.205048 152.633377,173.243179 
	C153.266449,173.450104 154.052292,174.459091 154.062759,175.107254 
	C154.182541,182.534058 160.050034,189.047867 157.437454,196.930435 
	C156.779099,198.916809 157.632751,200.127014 160.019226,200.775955 
	C164.389450,201.964386 165.545288,204.652603 163.469330,208.703323 
	C160.902237,213.712326 158.104095,218.372940 157.860489,224.415787 
	C157.685562,228.755264 154.007492,231.047836 149.421829,231.384171 
	C142.152710,231.917343 135.532700,230.522278 129.931183,225.570190 
	C129.193375,224.917923 128.500717,224.141983 126.806351,224.239075 
	C124.797676,248.502884 126.339127,272.244232 138.409760,294.980743 
	C134.450302,294.678528 134.182938,292.583344 133.468048,291.039337 
	C130.386749,284.384338 127.972137,277.498962 126.595024,270.272186 
	C125.776543,265.976959 124.226807,261.946747 121.845795,258.280396 
	C117.643761,251.809982 116.508774,251.380066 109.019226,253.039764 
	C102.659317,254.449142 90.413620,248.465454 86.534134,241.637711 
	C83.748283,236.734726 81.266197,231.620819 80.068970,226.016678 
	C78.983513,220.935745 80.511147,219.047760 85.313316,220.506088 
	C93.962143,223.132523 103.070190,224.719681 109.674278,232.073441 
	C112.975471,235.749390 116.327011,239.188065 116.789207,244.262253 
	C117.219482,248.986023 120.387390,251.928604 123.631447,256.214325 
	C123.631447,247.427490 123.631317,239.579117 123.631638,231.730728 
	C123.631668,230.898178 123.470360,230.025650 123.662140,229.239532 
	C124.994118,223.779297 123.796951,221.376602 117.300941,220.835342 
	C109.451035,220.181290 104.676971,213.976120 103.805305,205.737778 
	C103.427498,202.167038 102.366348,198.959030 100.817238,195.791168 
	C99.511002,193.119934 97.732933,190.144470 100.179604,187.429077 
	C102.743683,184.583389 106.772614,184.677338 109.438950,186.346909 
	C114.935944,189.788940 117.680603,187.320755 120.740181,183.070618 
	C123.863113,178.732452 127.587494,174.846817 133.576050,173.553070 
M127.512695,211.744736 
	C128.422638,210.347916 127.343323,208.366196 128.801361,207.168884 
	C130.163345,206.760574 129.938980,208.767960 131.116135,208.580276 
	C133.030960,207.282455 132.182785,204.879349 133.199234,203.203995 
	C134.936722,203.147720 133.700607,206.406448 136.211136,205.675995 
	C138.103226,205.125488 138.150696,203.591965 138.775589,202.324081 
	C139.812088,200.221039 139.659897,198.041321 138.601410,196.064423 
	C136.344437,191.849197 136.271103,187.529175 137.329987,182.992935 
	C137.815659,180.912369 138.271805,178.465286 136.061874,177.065033 
	C133.627258,175.522415 131.106247,176.413361 129.156525,178.125626 
	C124.267502,182.419189 119.854370,187.183182 116.833313,193.015350 
	C115.772141,195.063934 114.836510,197.284927 114.775764,199.368439 
	C119.533928,198.808624 118.693581,193.194351 123.202545,191.113922 
	C121.467850,196.376251 120.237350,200.938553 118.390480,205.235977 
	C117.790512,206.632034 117.084282,207.827240 118.300804,208.616730 
	C120.520897,210.057541 120.327881,213.118652 123.592758,215.199997 
	C122.685875,209.218246 125.658882,204.598801 125.573570,199.473633 
	C125.487122,194.280365 128.070053,191.131699 132.875381,188.151352 
	C132.511047,189.905930 132.379059,190.845795 132.118256,191.748428 
	C130.376846,197.775604 128.655045,203.801102 125.607971,209.362656 
	C125.024399,210.427795 124.738831,212.161560 127.512695,211.744736 
M153.831818,220.356812 
	C155.449158,222.934006 154.295837,224.627792 152.125977,226.149597 
	C150.355057,227.391602 152.126114,223.040115 150.199707,224.987335 
	C149.448425,225.746765 148.312683,226.557831 149.241974,228.220993 
	C152.531616,229.426071 154.120224,227.153839 154.993423,224.620117 
	C157.012283,218.762054 157.706482,212.539658 161.209763,207.066895 
	C162.954376,204.341492 160.885391,202.430954 157.473755,202.869705 
	C150.498062,203.766800 143.851196,205.835312 137.418228,208.588806 
	C134.812424,209.704178 132.433731,211.288132 130.583725,213.502960 
	C129.828949,214.406570 129.204895,215.453018 129.941284,216.680542 
	C130.550568,217.696198 131.656158,217.840729 132.592270,217.609039 
	C138.573166,216.128784 145.820740,218.031998 149.848358,211.226730 
	C150.179214,210.667694 150.844360,210.398026 151.978516,210.925888 
	C149.771683,218.494629 142.128616,219.017532 136.625839,222.349304 
	C143.506058,223.914154 148.542694,220.173111 153.630096,217.100433 
	C154.476929,218.250397 153.905609,219.007935 153.831818,220.356812 
M150.108932,188.685928 
	C150.766571,190.920502 149.897980,193.139221 149.659500,195.639465 
	C151.546829,194.402100 150.214050,191.612076 152.780869,191.161133 
	C155.035416,194.544662 151.209442,197.427368 152.116089,200.830780 
	C154.080933,199.626923 154.266647,197.699814 154.899353,195.807922 
	C157.117844,189.174271 152.231598,183.602798 152.403137,177.286911 
	C152.444550,175.761963 150.908615,175.350693 149.349319,175.784790 
	C142.641876,177.651962 138.417679,185.415756 140.296051,192.508362 
	C141.585693,191.413452 140.896317,188.960800 143.305206,188.140503 
	C143.541519,192.860611 141.053818,197.297531 143.039551,202.085526 
	C147.097672,197.973862 146.304840,192.087067 150.108932,188.685928 
M99.727745,245.842422 
	C100.902954,243.843552 104.071465,244.261963 104.864021,241.797028 
	C101.860039,238.436417 99.426315,242.091415 96.761917,242.163574 
	C95.399361,242.200455 94.297791,241.678879 93.838928,243.584976 
	C93.446297,245.215927 94.074799,246.125977 95.358002,246.775589 
	C96.747421,247.478989 98.283684,248.848907 99.727745,245.842422 
M110.286568,236.277634 
	C108.567345,234.861633 107.353523,232.768570 104.914925,232.150009 
	C104.112350,234.391266 103.730614,237.446945 105.760452,237.949020 
	C109.147163,238.786697 110.626678,242.327820 114.198944,242.963898 
	C113.342117,240.496140 112.510391,238.382736 110.286568,236.277634 
M98.541992,228.849442 
	C97.239037,225.933350 95.164970,226.003036 92.592453,227.043137 
	C96.656265,234.656601 96.656265,234.656601 100.078133,233.523361 
	C99.598686,232.201187 99.119431,230.879532 98.541992,228.849442 
M90.788307,240.519409 
	C90.901962,238.020691 93.938828,237.792404 94.673172,235.727051 
	C92.277580,233.524567 89.978195,231.568390 86.822708,234.625565 
	C87.347252,235.908401 89.599419,236.352325 88.507942,238.535141 
	C88.016052,239.518829 88.539108,239.780380 90.788307,240.519409 
M145.159561,174.887100 
	C143.965073,170.250458 141.475143,172.803162 139.242279,173.804092 
	C141.543320,172.820190 141.743469,179.364365 145.159561,174.887100 
z"/>
<path fill="#000000" opacity="1.000000" stroke="none" 
	d="
M358.052307,247.755630 
	C359.727966,249.145554 360.097351,247.302902 360.962463,246.830429 
	C364.915070,244.671783 368.469604,246.068970 369.236755,250.399460 
	C370.075836,255.136002 370.223572,259.930145 369.836914,264.652679 
	C366.815308,265.910767 365.527771,265.157867 365.649902,262.026031 
	C365.772797,258.873718 365.678314,255.712112 365.645050,252.554947 
	C365.626648,250.807220 365.301971,249.005356 363.258362,248.737762 
	C361.316681,248.483490 359.815979,250.118958 359.704498,251.627731 
	C358.960236,261.698547 352.790863,270.765869 354.316498,281.240173 
	C354.587097,283.098022 354.884705,284.829346 356.365204,286.094025 
	C358.823914,286.760284 359.550201,284.090576 362.055573,283.101044 
	C360.779663,286.671967 359.135254,288.498138 355.791260,288.329224 
	C352.428406,288.159424 351.269379,285.733124 350.808685,283.021851 
	C350.066193,278.652161 351.633423,274.032562 349.460510,269.779144 
	C349.350891,269.564453 349.503021,269.082367 349.693848,268.867401 
	C355.545776,262.276123 353.370911,254.170670 353.716309,246.641617 
	C355.632019,245.253448 356.923645,245.756317 358.052307,247.755630 
z"/>
<path fill="#000000" opacity="1.000000" stroke="none" 
	d="
M466.288666,280.723724 
	C466.302948,282.183624 466.415222,283.194763 466.298401,284.178711 
	C466.135559,285.549927 467.105591,287.414734 465.164856,288.115204 
	C463.013031,288.891907 462.346039,286.999268 461.358124,285.341125 
	C457.937195,288.732849 453.999146,290.363342 449.805115,287.281982 
	C446.032196,284.510040 446.063721,280.458740 447.555389,276.415863 
	C449.234955,271.863586 452.406403,269.230774 457.532196,269.202820 
	C453.415405,272.101105 450.926147,275.753754 451.399628,280.877686 
	C451.621521,283.278992 452.421234,285.747253 454.981903,286.357086 
	C457.818512,287.032623 458.999847,284.601135 460.070038,282.499298 
	C463.024719,276.696381 461.678833,270.413971 461.943512,264.328613 
	C462.051666,261.842499 462.179260,259.959930 466.284485,260.588654 
	C466.284485,267.079315 466.284485,273.671082 466.288666,280.723724 
z"/>
<path fill="#000000" opacity="1.000000" stroke="none" 
	d="
M217.592773,256.572449 
	C215.562241,259.156494 215.991226,262.120087 215.456009,264.803650 
	C211.648636,264.646271 207.108047,256.675629 204.875046,246.406357 
	C209.144897,244.375198 209.336166,248.067978 210.411865,250.391876 
	C211.574539,252.903656 212.126984,255.726425 214.212418,258.151276 
	C217.737625,254.372070 216.808731,250.420273 215.435242,246.469803 
	C220.049362,244.457108 220.112808,248.157562 221.162781,250.528580 
	C222.236176,252.952423 223.294510,255.382919 224.655457,258.485260 
	C228.277924,254.666794 227.749222,248.737366 232.043442,246.090744 
	C230.294373,252.569016 226.300858,258.063385 225.992676,264.795044 
	C223.092758,266.076691 222.501999,264.085022 221.584229,262.219757 
	C220.563202,260.144623 220.684830,257.267853 217.592773,256.572449 
z"/>
<path fill="#000000" opacity="1.000000" stroke="none" 
	d="
M401.021301,269.812073 
	C399.708313,272.980103 398.330566,275.807220 396.974396,278.644592 
	C395.606323,281.506836 394.634369,284.476624 394.770203,288.165558 
	C388.594666,287.935547 390.355164,281.369049 386.603302,279.144867 
	C383.996887,281.186981 384.589478,284.813751 383.769165,287.766785 
	C379.922943,287.253784 376.028259,280.273132 373.381592,269.508606 
	C377.574402,267.353668 377.831543,270.816284 378.886658,273.278900 
	C379.985352,275.843323 380.605652,278.648560 382.630310,281.132751 
	C386.502686,277.545013 385.684570,273.615204 383.671051,269.563141 
	C388.141998,267.437866 388.448944,270.846710 389.554230,273.284790 
	C390.694733,275.800690 391.277679,278.641296 393.630005,280.869415 
	C395.887787,277.901031 396.798431,274.562958 397.661621,271.245667 
	C398.172333,269.283051 398.770905,268.037781 401.021301,269.812073 
z"/>
<path fill="#000000" opacity="1.000000" stroke="none" 
	d="
M302.795288,263.406799 
	C302.223785,262.240326 301.577972,262.513641 301.137451,263.039154 
	C299.334351,265.190399 297.062073,266.036621 294.468689,265.020813 
	C291.561951,263.882202 291.028107,261.136078 290.885925,258.415985 
	C290.729828,255.430023 290.762115,252.431976 290.786255,249.439789 
	C290.797852,248.000168 290.493073,246.126938 292.697876,246.080139 
	C295.056610,246.030060 295.115875,248.002823 295.174774,249.649551 
	C295.287567,252.804947 295.218384,255.966415 295.289124,259.123901 
	C295.327545,260.838165 295.600433,262.755096 297.545227,263.119232 
	C299.550781,263.494812 300.372620,261.600830 301.036835,260.121307 
	C302.563934,256.719604 302.806305,253.082642 302.712372,249.391937 
	C302.677277,248.011292 302.156158,246.099670 304.440643,245.942810 
	C306.851166,245.777313 306.961456,247.642319 306.986694,249.351822 
	C307.050507,253.672592 307.165131,257.997345 307.047302,262.314697 
	C306.940796,266.217224 305.236694,266.127136 302.795288,263.406799 
z"/>
<path fill="#000000" opacity="1.000000" stroke="none" 
	d="
M182.452545,281.514587 
	C180.689270,277.378143 179.075333,273.593475 176.994064,268.712921 
	C185.087784,269.298248 183.005768,277.533356 187.400330,279.914093 
	C191.607788,277.642853 188.935623,270.858643 195.083664,268.147369 
	C191.421448,277.331543 188.456573,285.347626 185.010071,293.151001 
	C183.423615,296.742950 179.893661,297.027039 177.236664,294.381165 
	C176.102310,293.251587 175.201248,292.008362 176.593201,290.522308 
	C177.966736,289.055939 179.323853,288.740723 180.580078,290.811340 
	C180.959778,291.437256 181.797211,291.785431 182.475052,292.298737 
	C186.961182,288.660706 183.553619,285.261658 182.452545,281.514587 
z"/>
<path fill="#000000" opacity="1.000000" stroke="none" 
	d="
M310.630493,271.630371 
	C313.752472,268.858459 317.125183,267.910492 320.611206,269.192383 
	C323.560303,270.276825 327.414154,271.603271 326.192474,275.868225 
	C325.085175,279.733948 327.950165,284.869873 322.590546,287.458496 
	C319.866760,288.774048 317.085052,288.708649 314.361237,288.005249 
	C309.182312,286.667847 306.331299,280.992645 308.132050,275.756348 
	C308.603790,274.384644 309.600037,273.193329 310.630493,271.630371 
M318.526428,286.551270 
	C321.279327,286.132111 323.711334,285.137177 324.497498,282.183716 
	C324.984467,280.354370 323.849243,278.762634 322.350220,278.099060 
	C318.562988,276.422546 315.589508,278.807739 312.358246,280.252045 
	C313.265015,283.485107 314.831177,285.627075 318.526428,286.551270 
M315.333527,271.012482 
	C312.818542,272.443665 311.381042,274.337830 312.421875,277.544403 
	C316.128571,277.697174 318.743713,275.934479 321.350677,273.890320 
	C320.044708,271.528992 318.405609,270.414337 315.333527,271.012482 
z"/>
<path fill="#000000" opacity="1.000000" stroke="none" 
	d="
M183.539917,251.923203 
	C188.110672,245.406876 194.522964,243.705002 199.289215,247.669373 
	C202.373535,250.234756 204.301941,253.589478 202.985840,257.799866 
	C201.567123,262.338409 198.598434,265.079010 193.569870,265.340698 
	C188.999741,265.578522 185.894257,263.594360 184.003754,259.582672 
	C182.909607,257.260864 182.583023,254.806671 183.539917,251.923203 
M187.401978,252.140564 
	C187.243317,254.984680 187.156464,257.806000 189.040512,260.246674 
	C190.733749,262.440155 192.615204,264.577148 195.675247,263.223175 
	C198.608185,261.925476 199.657028,259.026215 199.224594,256.142548 
	C198.705948,252.684052 197.460007,249.159546 193.716278,247.823273 
	C190.566711,246.699066 188.775742,248.747177 187.401978,252.140564 
z"/>
<path fill="#000000" opacity="1.000000" stroke="none" 
	d="
M336.358551,268.822327 
	C339.937622,268.380493 342.727051,269.277740 344.933685,271.543121 
	C346.229309,272.873260 348.234253,274.297028 345.759644,276.408813 
	C344.997864,277.058899 345.477356,277.906311 345.655396,278.704926 
	C346.415253,282.113617 346.609406,285.509888 342.932800,287.377899 
	C339.308044,289.219482 335.486267,289.111237 332.093964,286.772919 
	C328.865814,284.547729 327.198792,281.240814 327.850800,277.314453 
	C328.599335,272.806915 331.517395,270.034180 336.358551,268.822327 
M336.356842,277.461639 
	C337.765900,275.890289 340.494629,276.006805 341.371277,273.590576 
	C339.983612,271.434326 338.282135,269.983978 335.603668,271.019684 
	C333.576294,271.803589 332.382660,273.444183 332.378998,275.642395 
	C332.374817,278.125427 334.413269,277.792999 335.529541,278.409637 
	C334.650360,279.114807 333.072296,279.144379 332.893860,280.477386 
	C332.560211,282.969971 334.317902,284.430084 336.083984,285.662506 
	C338.493713,287.344055 340.825592,286.591553 342.976349,284.991791 
	C344.817261,283.622498 345.377258,281.739105 344.400146,279.717102 
	C343.295105,277.430389 341.271423,276.999725 338.901459,277.625458 
	C337.954285,277.875488 336.945892,277.893707 336.356842,277.461639 
z"/>
<path fill="#000000" opacity="1.000000" stroke="none" 
	d="
M205.207581,288.347229 
	C198.953918,286.707184 195.781906,282.918335 196.081619,277.945343 
	C196.340530,273.649292 199.879486,269.530182 203.937561,268.801544 
	C208.898224,267.910858 213.334976,270.151184 215.437820,274.608612 
	C218.500183,281.099976 213.674683,287.859497 205.207581,288.347229 
M211.699646,276.713715 
	C210.126648,273.067932 208.375824,269.335999 203.415131,271.100800 
	C199.774139,272.396088 199.050949,278.178284 201.654205,282.507477 
	C201.995590,283.075195 202.386810,283.620392 202.810730,284.129608 
	C204.142181,285.728943 205.692413,287.028748 207.941177,286.457703 
	C210.062119,285.919098 211.172974,284.298981 211.865265,282.298279 
	C212.433456,280.656189 212.508301,279.054535 211.699646,276.713715 
z"/>
<path fill="#000000" opacity="1.000000" stroke="none" 
	d="
M159.468460,237.999207 
	C163.966461,237.732056 168.109924,237.628937 172.253906,237.555664 
	C173.560654,237.532547 175.024139,237.289062 175.651840,238.901276 
	C175.956207,239.683014 176.049530,240.611557 175.207123,241.141525 
	C173.839691,242.001755 172.667435,241.117035 171.515747,240.507111 
	C170.172089,239.795517 168.780334,239.462402 167.247192,239.350128 
	C162.941422,239.034790 162.399887,241.627502 162.410721,245.028809 
	C162.422882,248.850647 164.655807,248.893295 167.427902,248.353012 
	C168.065720,248.228699 168.723663,248.207687 169.581177,248.117081 
	C170.442993,250.268280 170.466095,251.905060 167.565277,251.388641 
	C163.285049,250.626617 162.286774,252.827805 162.395554,256.437622 
	C162.474991,259.073303 162.411087,261.713287 162.411087,264.688995 
	C160.768387,265.285797 158.459000,266.437408 158.610519,262.935638 
	C158.967621,254.682281 157.970703,246.405106 159.468460,237.999207 
z"/>
<path fill="#000000" opacity="1.000000" stroke="none" 
	d="
M403.060547,275.647614 
	C406.181610,269.602448 409.864471,267.641327 415.170837,268.879150 
	C419.635010,269.920563 422.298340,273.454651 422.351562,278.407654 
	C422.411835,284.016174 419.215576,287.775299 413.945404,288.294281 
	C408.415131,288.838867 403.931244,285.744446 402.910858,280.485748 
	C402.633759,279.057434 402.910492,277.521667 403.060547,275.647614 
M410.870148,285.712189 
	C415.602539,287.134674 418.221619,285.462219 418.654053,280.785950 
	C418.966400,277.407806 417.758087,274.579987 415.447723,272.244415 
	C412.728638,269.495697 409.574860,269.866852 407.634125,273.265076 
	C404.942932,277.977417 406.936066,281.816528 410.870148,285.712189 
z"/>
<path fill="#000000" opacity="1.000000" stroke="none" 
	d="
M278.903992,265.357239 
	C271.901398,265.319611 271.919678,265.319672 271.940613,258.905182 
	C271.962860,252.103653 271.945618,245.301956 271.945618,238.284348 
	C275.055481,237.042450 276.519714,237.646469 276.402985,241.344208 
	C276.219391,247.161407 276.573944,253.001541 276.246490,258.806335 
	C275.981415,263.504791 278.291046,264.155304 282.065979,263.545166 
	C284.326294,263.179810 286.172363,261.196472 288.962555,261.924652 
	C289.678314,264.243408 289.270111,265.680817 286.353729,265.561432 
	C284.027893,265.466217 281.700043,265.420013 278.903992,265.357239 
z"/>
<path fill="#000000" opacity="1.000000" stroke="none" 
	d="
M238.442474,252.676239 
	C238.657150,253.790726 239.021805,254.572632 239.083893,255.377869 
	C239.642853,262.626007 242.203186,264.363495 249.838760,262.610718 
	C247.764084,265.770905 242.979919,266.469025 238.901611,264.206696 
	C234.612579,261.827484 232.802322,256.104279 234.932846,251.659225 
	C237.929977,245.406036 245.527039,243.716949 250.888062,248.173172 
	C252.121735,249.198639 253.883163,250.318878 253.021072,252.224762 
	C252.320908,253.772675 250.670868,254.431885 248.865067,254.382126 
	C247.399826,254.341766 245.932587,254.373932 244.399078,254.373932 
	C244.468201,252.221039 247.136093,253.019348 247.378510,250.814316 
	C247.208099,248.875488 245.440323,247.564682 243.474808,247.627319 
	C240.782700,247.713089 239.024994,249.599426 238.442474,252.676239 
z"/>
<path fill="#000000" opacity="1.000000" stroke="none" 
	d="
M236.999344,268.860718 
	C240.031052,268.777588 242.681747,268.594238 245.304657,268.787689 
	C248.117004,268.995087 249.994705,270.705750 250.276749,273.517639 
	C250.538361,276.125732 248.684586,276.410278 246.646301,276.118042 
	C245.220718,274.735535 246.709518,271.010620 243.230453,271.565247 
	C240.167007,272.053589 240.343384,274.794159 240.269287,277.118591 
	C240.173843,280.111877 240.192764,283.108765 240.109848,286.102631 
	C240.071198,287.497772 239.243881,288.183807 237.866074,288.216675 
	C236.531082,288.248535 235.518265,287.765747 235.509033,286.289886 
	C235.474792,280.822510 235.486160,275.354523 235.557510,269.887756 
	C235.561752,269.562775 236.240967,269.246613 236.999344,268.860718 
z"/>
<path fill="#000000" opacity="1.000000" stroke="none" 
	d="
M272.732086,286.657867 
	C274.178864,284.004883 272.733521,282.737946 270.470856,281.743591 
	C268.362518,280.817139 266.072632,280.059967 264.300201,278.670227 
	C261.648865,276.591400 261.814636,273.735901 263.656616,271.145264 
	C265.720856,268.242065 270.636322,267.783325 274.072968,269.943176 
	C276.998901,271.782013 276.162201,273.871979 274.676331,276.355957 
	C272.898376,274.684814 271.469513,273.091736 269.786011,271.841522 
	C268.527069,270.906616 266.816162,270.704712 265.848694,272.301270 
	C264.730347,274.146759 266.304840,275.019348 267.648285,275.663818 
	C269.284058,276.448517 271.078583,276.906982 272.700348,277.715393 
	C277.177765,279.947388 277.594513,283.234497 273.483704,287.021790 
	C272.990417,286.982971 272.732086,286.657867 272.732086,286.657867 
z"/>
<path fill="#000000" opacity="1.000000" stroke="none" 
	d="
M254.898712,249.289780 
	C254.906036,248.343582 254.731476,247.639389 254.992706,247.387955 
	C257.944183,244.547089 261.677002,246.243057 265.034607,245.911880 
	C267.047241,245.713379 268.634918,247.358505 269.290588,249.480026 
	C269.707062,250.827606 269.909729,252.128601 268.306549,252.855087 
	C266.770630,253.551071 265.787598,253.012405 265.307281,251.412048 
	C264.822815,249.797867 264.342316,247.945465 262.075806,248.574005 
	C260.041687,249.138107 259.415192,250.949478 259.362640,252.866043 
	C259.276520,256.007324 259.235199,259.154541 259.327576,262.294769 
	C259.430481,265.792267 257.602142,265.518799 254.919220,264.710510 
	C254.919220,259.605408 254.919220,254.673737 254.898712,249.289780 
z"/>
<path fill="#000000" opacity="1.000000" stroke="none" 
	d="
M296.690796,287.632996 
	C293.602142,281.581482 289.919647,276.146912 288.892609,268.522156 
	C296.523987,269.484283 294.074036,277.993927 298.462830,280.520599 
	C302.342926,277.710114 300.629303,271.316345 305.595337,269.109772 
	C304.149994,275.416901 300.310608,280.801331 299.561371,287.279449 
	C299.432098,288.397369 297.996613,288.191315 296.690796,287.632996 
z"/>
<path fill="#000000" opacity="1.000000" stroke="none" 
	d="
M436.612671,270.059235 
	C439.234985,274.819580 439.234985,274.819580 435.243317,276.012177 
	C433.950134,274.481842 434.785248,270.719635 431.266541,271.488464 
	C428.084412,272.183746 428.347565,275.071625 428.311798,277.556488 
	C428.276031,280.039551 428.318878,282.523712 428.288757,285.006897 
	C428.271057,286.465668 428.561127,288.166931 426.265961,288.205170 
	C424.125336,288.240875 423.983917,286.799164 423.989410,285.187592 
	C424.007202,279.946442 423.996094,274.705200 423.996094,268.835846 
	C428.371918,270.080414 432.418304,267.304230 436.612671,270.059235 
z"/>
<path fill="#000000" opacity="1.000000" stroke="none" 
	d="
M445.201019,264.360840 
	C445.200073,271.445831 445.221008,278.072815 445.179688,284.699371 
	C445.170807,286.121399 445.474701,287.926941 443.272461,288.073181 
	C440.756012,288.240265 440.872467,286.337311 440.863037,284.672241 
	C440.824585,277.879089 440.824707,271.085693 440.794464,264.292480 
	C440.786896,262.593536 440.682465,260.687897 442.903870,260.441162 
	C445.547668,260.147491 444.919037,262.413177 445.201019,264.360840 
z"/>
<path fill="#000000" opacity="1.000000" stroke="none" 
	d="
M346.455017,258.375366 
	C345.018555,260.579041 345.664703,262.917023 344.898651,264.889679 
	C341.307068,264.434540 337.697327,257.973694 334.648071,246.737915 
	C338.321564,245.668518 338.282593,245.683990 340.068359,250.179230 
	C341.104279,252.786942 342.289459,255.335373 343.604950,258.365326 
	C347.528687,254.794510 346.257751,248.525085 350.427948,245.773285 
	C350.855835,246.004715 351.283722,246.236130 351.711639,246.467560 
	C350.007599,250.321014 348.303589,254.174469 346.455017,258.375366 
z"/>
<path fill="#000000" opacity="1.000000" stroke="none" 
	d="
M181.805756,257.492035 
	C181.606262,260.072266 181.452942,262.225342 181.276993,264.696167 
	C178.927444,265.578491 177.298569,266.051300 177.449112,262.007477 
	C177.715073,254.863892 177.494736,247.695435 177.268494,240.544022 
	C177.190659,238.083923 178.030685,237.161850 181.851944,237.384949 
	C181.851944,243.944931 181.851944,250.504898 181.805756,257.492035 
z"/>
<path fill="#000000" opacity="1.000000" stroke="none" 
	d="
M279.428833,268.919617 
	C280.458679,268.914307 281.548462,268.801147 281.688751,269.113861 
	C284.422302,275.208679 288.380554,280.855133 289.424805,287.502747 
	C287.098175,288.710968 285.761200,288.213745 285.075989,286.618500 
	C282.729279,281.155151 280.488831,275.645813 278.276245,270.126587 
	C278.183258,269.894592 278.774353,269.388428 279.428833,268.919617 
z"/>
<path fill="#000000" opacity="1.000000" stroke="none" 
	d="
M233.413330,269.922913 
	C233.541214,276.042725 233.142731,281.842285 234.222763,287.727478 
	C231.741577,288.612305 230.491104,288.575470 229.457870,285.891754 
	C227.397598,280.540344 230.370193,275.418213 229.638412,270.104462 
	C229.362808,268.103088 231.777176,268.174255 233.413330,269.922913 
z"/>
<path fill="#000000" opacity="1.000000" stroke="none" 
	d="
M320.307373,259.248230 
	C320.293182,259.577728 320.357300,259.934998 320.251862,260.232117 
	C319.665222,261.885254 321.347717,264.687836 318.317078,265.045746 
	C315.921448,265.328705 315.781250,262.849457 315.105072,261.277710 
	C313.036743,256.469849 311.054230,251.625015 308.987305,246.672272 
	C312.066254,245.088730 313.411926,246.100296 314.411835,248.824997 
	C315.644653,252.184479 316.450104,255.801529 319.523254,258.749634 
	C319.978241,258.985382 320.307373,259.248230 320.307373,259.248230 
z"/>
<path fill="#000000" opacity="1.000000" stroke="none" 
	d="
M217.914703,283.496460 
	C217.481857,278.485168 217.345047,273.877502 217.863144,269.323029 
	C221.092300,268.155762 221.420288,269.987427 221.479843,272.273712 
	C221.561783,275.419159 221.574799,278.581909 221.937149,281.700073 
	C222.290192,284.738037 223.066025,287.701477 227.751450,284.980255 
	C227.055328,288.230774 225.191971,288.462799 223.165894,288.459686 
	C220.103668,288.454987 218.854813,286.404572 217.914703,283.496460 
z"/>
<path fill="#000000" opacity="1.000000" stroke="none" 
	d="
M273.120850,287.144531 
	C270.181305,289.949432 266.822815,289.261200 263.454773,288.108826 
	C260.655548,287.151123 260.135651,285.312775 261.644897,282.218750 
	C264.710236,284.947266 267.580597,287.815765 272.337769,286.678497 
	C272.732086,286.657867 272.990417,286.982971 273.120850,287.144531 
z"/>
<path fill="#000000" opacity="1.000000" stroke="none" 
	d="
M319.812683,258.855225 
	C321.208893,254.295822 321.597656,249.283615 325.015808,245.776901 
	C325.503632,246.003235 325.991455,246.229584 326.479248,246.455917 
	C324.577667,250.546997 322.676086,254.638062 320.540955,258.988678 
	C320.307373,259.248230 319.978241,258.985382 319.812683,258.855225 
z"/>
</svg>